<?xml version="1.0" encoding="utf-8"?>
<!-- Generator: Adobe Illustrator 26.1.0, SVG Export Plug-In . SVG Version: 6.00 Build 0)  -->
<svg version="1.1" id="Capa_1" xmlns="http://www.w3.org/2000/svg" xmlns:xlink="http://www.w3.org/1999/xlink" x="0px" y="0px"
	 viewBox="0 0 463 190.9" style="enable-background:new 0 0 463 190.9;" xml:space="preserve">
<g>
	<path d="M439.5,0c-13,0-23.5,10.5-23.5,23.5c0,4.7-3.8,8.5-8.5,8.5s-8.5-3.8-8.5-8.5c0-0.3,0-0.5,0-0.8C398.6,14.5,391.8,8,383.5,8
		H196.2c-8.9,0-17.8,0.9-26.6,2.6l-21.1,4.2c-5.2,1-9.3,4.6-11.2,9.2c-30.6,0.8-63,7.3-87.8,17.8C17.5,55.3,0,74.3,0,95.5
		s17.5,40.2,49.4,53.6c24.8,10.5,57.2,17,87.8,17.8c2,4.6,6.1,8.2,11.2,9.2l21.1,4.2c8.7,1.8,17.7,2.6,26.6,2.6h187.3
		c8.3,0,15.1-6.5,15.5-14.7c0-0.2,0-0.5,0-0.8c0-4.7,3.8-8.5,8.5-8.5s8.5,3.8,8.5,8.5c0,13,10.5,23.5,23.5,23.5s23.6-10.4,23.6-23.4
		v-144C463,10.5,452.5,0,439.5,0z M136,151.8c-28.4-0.9-58-7-80.8-16.5c-15-6.3-40.2-20-40.2-39.8c0-31,62.4-54.5,121-56.4V151.8z
		 M384,167.5c0,0.3-0.2,0.5-0.5,0.5H196.2c-7.9,0-15.9-0.8-23.6-2.3l-21.1-4.2c-0.2,0-0.4-0.2-0.4-0.5V30c0-0.2,0.2-0.5,0.4-0.5
		l21.1-4.2c7.8-1.6,15.7-2.3,23.6-2.3h187.3c0.3,0,0.5,0.2,0.5,0.5V167.5z M416,145.6c-2.6-1-5.5-1.6-8.5-1.6s-5.9,0.6-8.5,1.6V45.4
		c2.6,1,5.5,1.6,8.5,1.6s5.9-0.6,8.5-1.6V145.6z M448,167.5c0,4.7-3.8,8.5-8.5,8.5s-8.5-3.8-8.5-8.5v-144c0-4.7,3.8-8.5,8.5-8.5
		s8.5,3.8,8.5,8.5V167.5z"/>
	<path style="fill:#666633;" d="M448,23.5v144c0,4.7-3.8,8.5-8.5,8.5s-8.5-3.8-8.5-8.5v-144c0-4.7,3.8-8.5,8.5-8.5
		S448,18.8,448,23.5z"/>
	<path style="fill:#666633;" d="M416,45.4v100.2c-2.6-1-5.5-1.6-8.5-1.6s-5.9,0.6-8.5,1.6V45.4c2.6,1,5.5,1.6,8.5,1.6
		S413.4,46.4,416,45.4z"/>
	<path style="fill:#666633;" d="M384,23.5v144c0,0.3-0.2,0.5-0.5,0.5H196.2c-7.9,0-15.9-0.8-23.6-2.3l-21.1-4.2
		c-0.2,0-0.4-0.2-0.4-0.5V30c0-0.2,0.2-0.5,0.4-0.5l21.1-4.2c7.8-1.6,15.7-2.3,23.6-2.3h187.3C383.8,23,384,23.2,384,23.5z"/>
	<path style="fill:#666633;" d="M136,39.1v112.7c-28.4-0.9-58-7-80.8-16.5c-15-6.3-40.2-20-40.2-39.8C15,64.5,77.4,41,136,39.1z"/>
</g>
</svg>
