<?xml version="1.0" encoding="utf-8"?>
<!-- Generator: Adobe Illustrator 26.1.0, SVG Export Plug-In . SVG Version: 6.00 Build 0)  -->
<svg version="1.1" id="Capa_1" xmlns="http://www.w3.org/2000/svg" xmlns:xlink="http://www.w3.org/1999/xlink" x="0px" y="0px"
	 viewBox="0 0 83.1 180.1" style="enable-background:new 0 0 83.1 180.1;" xml:space="preserve">
<g style="opacity:0.71;">
	<path style="fill:#29ABE2;" d="M41.5,179.6c-22.6,0-41-19.8-41-44.1V44.6c0-24.3,18.4-44.1,41-44.1s41,19.8,41,44.1v90.9
		C82.6,159.8,64.2,179.6,41.5,179.6z"/>
	<path d="M41.5,1c22.4,0,40.6,19.6,40.6,43.6v90.9c0,24.1-18.2,43.6-40.6,43.6C19.2,179.1,1,159.5,1,135.5V90V44.6
		C1,20.5,19.2,1,41.5,1 M41.5,0L41.5,0C18.6,0,0,20,0,44.6V90v45.4c0,24.6,18.6,44.6,41.5,44.6h0c22.9,0,41.5-20,41.5-44.6V44.6
		C83.1,20,64.5,0,41.5,0L41.5,0z"/>
</g>
</svg>
