<?xml version="1.0" encoding="utf-8"?>
<!-- Generator: Adobe Illustrator 26.1.0, SVG Export Plug-In . SVG Version: 6.00 Build 0)  -->
<svg version="1.1" xmlns="http://www.w3.org/2000/svg" xmlns:xlink="http://www.w3.org/1999/xlink" x="0px" y="0px"
	 viewBox="0 0 600 800" enable-background="new 0 0 600 800" xml:space="preserve">
<g id="Sketch" display="none">
	
		<rect x="310.57" y="568.57" display="inline" opacity="0.82" fill="#FFFFFF" stroke="#020203" stroke-width="1.1398" stroke-miterlimit="10" width="43.87" height="13.58"/>
	
		<rect x="245.93" y="568.57" display="inline" opacity="0.82" fill="#FFFFFF" stroke="#020203" stroke-width="1.1398" stroke-miterlimit="10" width="43.87" height="13.58"/>
	
		<rect x="310.32" y="505.23" display="inline" opacity="0.82" fill="#FFFFFF" stroke="#020203" stroke-miterlimit="10" width="23.37" height="70.13"/>
	
		<rect x="266.96" y="505.17" display="inline" opacity="0.82" fill="#FFFFFF" stroke="#020203" stroke-miterlimit="10" width="23.37" height="70.13"/>
	<g display="inline" opacity="0.82">
		<path fill="#FFFFFF" d="M348.39,288.22c-6.94,0-12.59-3.75-12.59-8.37s5.65-8.37,12.59-8.37s12.59,3.75,12.59,8.37
			S355.33,288.22,348.39,288.22z"/>
		<path fill="#020203" d="M348.39,271.97c6.68,0,12.11,3.54,12.11,7.89c0,4.35-5.43,7.89-12.11,7.89c-6.68,0-12.11-3.54-12.11-7.89
			C336.28,275.5,341.71,271.97,348.39,271.97 M348.39,271c-7.22,0-13.08,3.96-13.08,8.85s5.85,8.85,13.08,8.85
			c7.22,0,13.08-3.96,13.08-8.85S355.61,271,348.39,271L348.39,271z"/>
	</g>
	<g display="inline" opacity="0.82">
		<ellipse fill="#FFFFFF" cx="249.94" cy="279.02" rx="12.59" ry="8.37"/>
		<path fill="#020203" d="M249.94,271.13c6.68,0,12.11,3.54,12.11,7.89c0,4.35-5.43,7.89-12.11,7.89s-12.11-3.54-12.11-7.89
			C237.82,274.67,243.26,271.13,249.94,271.13 M249.94,270.16c-7.22,0-13.08,3.96-13.08,8.85s5.85,8.85,13.08,8.85
			s13.08-3.96,13.08-8.85S257.16,270.16,249.94,270.16L249.94,270.16z"/>
	</g>
	<g display="inline" opacity="0.82">
		<path fill="#FFFFFF" d="M231.42,371.79c-5.5,0-10.09-4.13-10.68-9.62c-0.63-5.9,3.66-11.2,9.55-11.83
			c0.39-0.04,0.77-0.06,1.15-0.06c5.5,0,10.09,4.13,10.68,9.62c0.4,3.74-0.35,6.65-2.22,8.66c-1.63,1.76-4.1,2.82-7.33,3.16
			C232.18,371.77,231.8,371.79,231.42,371.79z"/>
		<path fill="#020203" d="M231.45,350.77L231.45,350.77c5.26,0,9.64,3.95,10.2,9.18c0.38,3.59-0.32,6.38-2.09,8.28
			c-1.55,1.67-3.92,2.68-7.03,3.01c-0.37,0.04-0.74,0.06-1.1,0.06c-5.26,0-9.64-3.95-10.2-9.18c-0.29-2.73,0.5-5.4,2.22-7.54
			s4.17-3.47,6.9-3.76C230.71,350.79,231.08,350.77,231.45,350.77 M231.45,349.8c-0.4,0-0.8,0.02-1.2,0.06
			c-6.17,0.66-10.64,6.19-9.98,12.36c0.61,5.77,5.49,10.05,11.16,10.05c0.4,0,0.8-0.02,1.2-0.06c6.17-0.66,10.86-4.07,9.98-12.36
			C241.99,354.08,237.12,349.8,231.45,349.8L231.45,349.8z"/>
	</g>
	<g display="inline" opacity="0.82">
		<path fill="#FFFFFF" d="M369.2,370.86c-0.27,0-0.54-0.01-0.82-0.03c-5.91-0.45-10.36-5.62-9.91-11.53
			c0.42-5.58,5.12-9.94,10.71-9.94c0.27,0,0.54,0.01,0.82,0.03c2.86,0.22,5.47,1.53,7.34,3.71c1.87,2.18,2.78,4.95,2.57,7.82
			C379.49,366.49,374.79,370.86,369.2,370.86z"/>
		<path fill="#020203" d="M369.18,349.84L369.18,349.84c0.26,0,0.52,0.01,0.78,0.03c2.74,0.21,5.23,1.46,7.01,3.54
			c1.79,2.08,2.66,4.73,2.45,7.47c-0.4,5.33-4.89,9.5-10.23,9.5c-0.26,0-0.52-0.01-0.78-0.03c-2.74-0.21-5.23-1.46-7.01-3.54
			c-1.79-2.08-2.66-4.73-2.45-7.47C359.35,354.01,363.84,349.84,369.18,349.84 M369.18,348.88c-5.82,0-10.75,4.49-11.19,10.39
			c-0.47,6.19,4.17,11.58,10.36,12.05c0.29,0.02,0.57,0.03,0.86,0.03c5.82,0,10.75-4.49,11.19-10.39
			c0.47-6.19-4.17-11.58-10.36-12.05C369.75,348.89,369.46,348.88,369.18,348.88L369.18,348.88z"/>
	</g>
	<g display="inline" opacity="0.82">
		<polygon fill="#FFFFFF" points="338.33,277.13 360.61,279.18 379.36,356.65 353.75,361.34 		"/>
		<path fill="#020203" d="M338.94,277.69l21.26,1.96l18.54,76.61l-24.6,4.5L338.94,277.69 M337.72,276.57l15.62,85.35l26.62-4.87
			l-18.96-78.33L337.72,276.57L337.72,276.57z"/>
	</g>
	<g display="inline" opacity="0.82">
		<polygon fill="#FFFFFF" points="351.19,429.55 353.78,360.83 379.72,362.85 370.92,431.09 		"/>
		<path fill="#020203" d="M354.26,361.36l24.9,1.95l-8.67,67.25l-18.78-1.47L354.26,361.36 M353.3,360.29l-2.63,69.72l20.68,1.62
			l8.93-69.23L353.3,360.29L353.3,360.29z"/>
	</g>
	<g display="inline" opacity="0.82">
		<polygon fill="#FFFFFF" points="221.16,357.9 236.68,278.7 259.72,277.12 246.91,361.79 		"/>
		<path fill="#020203" d="M259.14,277.66l-12.65,83.57l-24.74-3.74l15.35-78.31L259.14,277.66 M260.31,276.57l-24.05,1.65
			l-15.7,80.09l26.76,4.05L260.31,276.57L260.31,276.57z"/>
	</g>
	<g display="inline" opacity="0.82">
		<polygon fill="#FFFFFF" points="263.42,399.52 250.42,310.09 254.08,270.65 344.69,270.65 348.85,309.76 335.23,399.52 		"/>
		<path fill="#020203" d="M344.26,271.13l4.11,38.61l-13.56,89.29h-70.97l-12.93-88.95l3.62-38.95H344.26 M345.13,270.16h-91.48
			l-3.71,39.94L263,400h72.64l13.7-90.23L345.13,270.16L345.13,270.16z"/>
	</g>
	<g display="inline" opacity="0.82">
		<polygon fill="#FFFFFF" points="254.56,507.26 263.45,400.48 335.2,400.48 345.05,507.6 300.08,529.46 		"/>
		<path fill="#020203" d="M334.76,400.97l9.78,106.35l-44.46,21.61l-45.01-21.95l8.82-106.01H334.76 M335.64,400H263l-8.95,107.55
			L300.08,530l45.48-22.11L335.64,400L335.64,400z"/>
	</g>
	<g display="inline" opacity="0.82">
		<polygon fill="#FFFFFF" points="220.98,364.11 246.85,361.28 250.51,430.01 230.81,432.16 		"/>
		<path fill="#020203" d="M246.38,361.84l3.61,67.73l-18.75,2.05l-9.69-67.06L246.38,361.84 M247.32,360.73l-26.9,2.94l9.97,69.04
			l20.65-2.26L247.32,360.73L247.32,360.73z"/>
	</g>
	<g display="inline" opacity="0.82">
		<path fill="#FFFFFF" d="M280.94,276.09c-6.12,0-11.1-4.98-11.1-11.1v-54.96c0-6.12,4.98-11.1,11.1-11.1h36.78
			c6.12,0,11.1,4.98,11.1,11.1v54.96c0,6.12-4.98,11.1-11.1,11.1H280.94z"/>
		<path fill="#020203" d="M317.72,199.41c5.85,0,10.62,4.76,10.62,10.62v54.96c0,5.85-4.76,10.62-10.62,10.62h-36.78
			c-5.85,0-10.62-4.76-10.62-10.62v-54.96c0-5.85,4.76-10.62,10.62-10.62H317.72 M317.72,198.45h-36.78
			c-6.37,0-11.58,5.21-11.58,11.58v54.96c0,6.37,5.21,11.58,11.58,11.58h36.78c6.37,0,11.58-5.21,11.58-11.58v-54.96
			C329.31,203.66,324.1,198.45,317.72,198.45L317.72,198.45z"/>
	</g>
</g>
<g id="Cuadrícula" display="none">
	<g display="inline" opacity="0.48">
		<rect fill="none" stroke="#9A9999" stroke-miterlimit="10" width="600" height="800"/>
		<line fill="none" stroke="#9A9999" stroke-miterlimit="10" x1="0" y1="774.19" x2="600" y2="774.19"/>
		<line fill="none" stroke="#9A9999" stroke-miterlimit="10" x1="0" y1="748.39" x2="600" y2="748.39"/>
		<line fill="none" stroke="#9A9999" stroke-miterlimit="10" x1="0" y1="722.58" x2="600" y2="722.58"/>
		<line fill="none" stroke="#9A9999" stroke-miterlimit="10" x1="0" y1="696.77" x2="600" y2="696.77"/>
		<line fill="none" stroke="#9A9999" stroke-miterlimit="10" x1="0" y1="670.97" x2="600" y2="670.97"/>
		<line fill="none" stroke="#9A9999" stroke-miterlimit="10" x1="0" y1="645.16" x2="600" y2="645.16"/>
		<line fill="none" stroke="#9A9999" stroke-miterlimit="10" x1="0" y1="619.35" x2="600" y2="619.35"/>
		<line fill="none" stroke="#9A9999" stroke-miterlimit="10" x1="0" y1="593.55" x2="600" y2="593.55"/>
		<line fill="none" stroke="#9A9999" stroke-miterlimit="10" x1="0" y1="567.74" x2="600" y2="567.74"/>
		<line fill="none" stroke="#9A9999" stroke-miterlimit="10" x1="0" y1="541.94" x2="600" y2="541.94"/>
		<line fill="none" stroke="#9A9999" stroke-miterlimit="10" x1="0" y1="516.13" x2="600" y2="516.13"/>
		<line fill="none" stroke="#9A9999" stroke-miterlimit="10" x1="0" y1="490.32" x2="600" y2="490.32"/>
		<line fill="none" stroke="#9A9999" stroke-miterlimit="10" x1="0" y1="464.52" x2="600" y2="464.52"/>
		<line fill="none" stroke="#9A9999" stroke-miterlimit="10" x1="0" y1="438.71" x2="600" y2="438.71"/>
		<line fill="none" stroke="#9A9999" stroke-miterlimit="10" x1="0" y1="412.9" x2="600" y2="412.9"/>
		<line fill="none" stroke="#9A9999" stroke-miterlimit="10" x1="0" y1="387.1" x2="600" y2="387.1"/>
		<line fill="none" stroke="#9A9999" stroke-miterlimit="10" x1="0" y1="361.29" x2="600" y2="361.29"/>
		<line fill="none" stroke="#9A9999" stroke-miterlimit="10" x1="0" y1="335.48" x2="600" y2="335.48"/>
		<line fill="none" stroke="#9A9999" stroke-miterlimit="10" x1="0" y1="309.68" x2="600" y2="309.68"/>
		<line fill="none" stroke="#9A9999" stroke-miterlimit="10" x1="0" y1="283.87" x2="600" y2="283.87"/>
		<line fill="none" stroke="#9A9999" stroke-miterlimit="10" x1="0" y1="258.06" x2="600" y2="258.06"/>
		<line fill="none" stroke="#9A9999" stroke-miterlimit="10" x1="0" y1="232.26" x2="600" y2="232.26"/>
		<line fill="none" stroke="#9A9999" stroke-miterlimit="10" x1="0" y1="206.45" x2="600" y2="206.45"/>
		<line fill="none" stroke="#9A9999" stroke-miterlimit="10" x1="0" y1="180.65" x2="600" y2="180.65"/>
		<line fill="none" stroke="#9A9999" stroke-miterlimit="10" x1="0" y1="154.84" x2="600" y2="154.84"/>
		<line fill="none" stroke="#9A9999" stroke-miterlimit="10" x1="0" y1="129.03" x2="600" y2="129.03"/>
		<line fill="none" stroke="#9A9999" stroke-miterlimit="10" x1="0" y1="103.23" x2="600" y2="103.23"/>
		<line fill="none" stroke="#9A9999" stroke-miterlimit="10" x1="0" y1="77.42" x2="600" y2="77.42"/>
		<line fill="none" stroke="#9A9999" stroke-miterlimit="10" x1="0" y1="51.61" x2="600" y2="51.61"/>
		<line fill="none" stroke="#9A9999" stroke-miterlimit="10" x1="0" y1="25.81" x2="600" y2="25.81"/>
		<line fill="none" stroke="#9A9999" stroke-miterlimit="10" x1="580.65" y1="0" x2="580.65" y2="800"/>
		<line fill="none" stroke="#9A9999" stroke-miterlimit="10" x1="561.29" y1="0" x2="561.29" y2="800"/>
		<line fill="none" stroke="#9A9999" stroke-miterlimit="10" x1="541.94" y1="0" x2="541.94" y2="800"/>
		<line fill="none" stroke="#9A9999" stroke-miterlimit="10" x1="522.58" y1="0" x2="522.58" y2="800"/>
		<line fill="none" stroke="#9A9999" stroke-miterlimit="10" x1="503.23" y1="0" x2="503.23" y2="800"/>
		<line fill="none" stroke="#9A9999" stroke-miterlimit="10" x1="483.87" y1="0" x2="483.87" y2="800"/>
		<line fill="none" stroke="#9A9999" stroke-miterlimit="10" x1="464.52" y1="0" x2="464.52" y2="800"/>
		<line fill="none" stroke="#9A9999" stroke-miterlimit="10" x1="445.16" y1="0" x2="445.16" y2="800"/>
		<line fill="none" stroke="#9A9999" stroke-miterlimit="10" x1="425.81" y1="0" x2="425.81" y2="800"/>
		<line fill="none" stroke="#9A9999" stroke-miterlimit="10" x1="406.45" y1="0" x2="406.45" y2="800"/>
		<line fill="none" stroke="#9A9999" stroke-miterlimit="10" x1="387.1" y1="0" x2="387.1" y2="800"/>
		<line fill="none" stroke="#9A9999" stroke-miterlimit="10" x1="367.74" y1="0" x2="367.74" y2="800"/>
		<line fill="none" stroke="#9A9999" stroke-miterlimit="10" x1="348.39" y1="0" x2="348.39" y2="800"/>
		<line fill="none" stroke="#9A9999" stroke-miterlimit="10" x1="329.03" y1="0" x2="329.03" y2="800"/>
		<line fill="none" stroke="#9A9999" stroke-miterlimit="10" x1="309.68" y1="0" x2="309.68" y2="800"/>
		<line fill="none" stroke="#9A9999" stroke-miterlimit="10" x1="290.32" y1="0" x2="290.32" y2="800"/>
		<line fill="none" stroke="#9A9999" stroke-miterlimit="10" x1="270.97" y1="0" x2="270.97" y2="800"/>
		<line fill="none" stroke="#9A9999" stroke-miterlimit="10" x1="251.61" y1="0" x2="251.61" y2="800"/>
		<line fill="none" stroke="#9A9999" stroke-miterlimit="10" x1="232.26" y1="0" x2="232.26" y2="800"/>
		<line fill="none" stroke="#9A9999" stroke-miterlimit="10" x1="212.9" y1="0" x2="212.9" y2="800"/>
		<line fill="none" stroke="#9A9999" stroke-miterlimit="10" x1="193.55" y1="0" x2="193.55" y2="800"/>
		<line fill="none" stroke="#9A9999" stroke-miterlimit="10" x1="174.19" y1="0" x2="174.19" y2="800"/>
		<line fill="none" stroke="#9A9999" stroke-miterlimit="10" x1="154.84" y1="0" x2="154.84" y2="800"/>
		<line fill="none" stroke="#9A9999" stroke-miterlimit="10" x1="135.48" y1="0" x2="135.48" y2="800"/>
		<line fill="none" stroke="#9A9999" stroke-miterlimit="10" x1="116.13" y1="0" x2="116.13" y2="800"/>
		<line fill="none" stroke="#9A9999" stroke-miterlimit="10" x1="96.77" y1="0" x2="96.77" y2="800"/>
		<line fill="none" stroke="#9A9999" stroke-miterlimit="10" x1="77.42" y1="0" x2="77.42" y2="800"/>
		<line fill="none" stroke="#9A9999" stroke-miterlimit="10" x1="58.06" y1="0" x2="58.06" y2="800"/>
		<line fill="none" stroke="#9A9999" stroke-miterlimit="10" x1="38.71" y1="0" x2="38.71" y2="800"/>
		<line fill="none" stroke="#9A9999" stroke-miterlimit="10" x1="19.35" y1="0" x2="19.35" y2="800"/>
	</g>
</g>
<g id="Piernas">
</g>
<g id="Torso">
</g>
<g id="Brazos">
</g>
<g id="Cabeza">
	<g>
		<path fill="#1B1B1B" stroke="#020203" stroke-width="1.4164" stroke-miterlimit="10" d="M260.31,499.03
			c0,0,40.01,20.44,81.45,2.73l-44.33-126.16L260.31,499.03z"/>
		
			<ellipse fill="#020203" stroke="#020203" stroke-width="1.2418" stroke-miterlimit="10" cx="322.33" cy="555.63" rx="11.71" ry="10.76"/>
		
			<ellipse fill="#020203" stroke="#020203" stroke-width="1.1544" stroke-miterlimit="10" cx="274.3" cy="554.16" rx="11.72" ry="9.28"/>
		<path fill="#020203" stroke="#020203" stroke-width="1.4164" stroke-miterlimit="10" d="M289.43,565.44h-40.94l-0.52-12.27
			c-0.08-1.9,1.13-3.49,2.64-3.47l37.44,0.57c0.88,0.01,1.58,0.91,1.58,2.02v12.89C289.63,565.33,289.54,565.44,289.43,565.44z"/>
		<path fill="#020203" stroke="#020203" stroke-width="1.4164" stroke-miterlimit="10" d="M346.42,566.38h-40.99
			c-0.08,0-0.14-0.08-0.14-0.18v-14.22c0-0.41,0.26-0.74,0.59-0.75l37.58-0.63c1.91-0.03,3.45,1.97,3.37,4.38L346.42,566.38z"/>
		<path fill="#020203" stroke="#020203" stroke-width="1.4164" stroke-miterlimit="10" d="M291.24,465.36l-0.71,24.12l0.71,71.88
			H272.3v-96l-1.88-73.49l32.65,1.19C303.07,393.06,292.19,417.16,291.24,465.36z"/>
		<path fill="#020203" stroke="#020203" stroke-width="1.4164" stroke-miterlimit="10" d="M305.23,456.68l0.71,24.12l-0.71,71.88
			h18.94v-96l1.88-73.49l-32.65,1.19C293.41,384.38,304.29,408.48,305.23,456.68z"/>
		<path fill="#C7B29A" stroke="#020203" stroke-miterlimit="10" d="M319.75,273.48c0,3.52-9.02,6.38-20.15,6.38
			s-20.12-2.91-20.15-6.38c-0.14-0.44-0.13-0.79,0-1.28c1.58-6.25,0.32-19.55,0.32-19.55l38.13,0.03c0,0-0.15,13.71,1.77,20.23
			c0.01,0.01,0.01,0.02,0.01,0.03C319.73,273.11,319.75,273.3,319.75,273.48z"/>
		<path fill="none" stroke="#020203" stroke-miterlimit="10" d="M319.75,273.17c-0.02-0.07-0.05-0.15-0.07-0.23"/>
		<path fill="#1B1B1B" stroke="#020203" stroke-width="1.046" stroke-miterlimit="10" d="M299.68,287.04h-2.21
			c0,0-0.13,82.72,0,94.72c0,0-2,39.67-16.64,110.09l-20.52,7.17l7.52-109.19c-4.31-53.58-19.74-113.65-19.74-113.65
			c11.1-3.31,29.85-5.08,29.85-5.08L299.68,287.04l23.15-15.94c0,0,18.74,1.77,29.85,5.08c0,0-15.44,60.08-19.74,113.65l8.83,111.92
			l-16.02-6.64c-12.19-16.85-28.28-113.36-28.28-113.36v-94.72"/>
		<path fill="#020203" stroke="#020203" stroke-width="1.0333" stroke-miterlimit="10" d="M301.31,267.29l16.92-6.34l6.05,12.2
			c0,0-9.59,11.03-24.15,14.1L301.31,267.29z"/>
		<path fill="#020203" stroke="#020203" stroke-width="1.0198" stroke-miterlimit="10" d="M296.11,267.61l-16.3-4.74l-4.98,12.74
			c0,0,14.7,11.12,24.89,11.81l-1.59-17.34C298.06,268.93,297.26,267.94,296.11,267.61z"/>
		
			<ellipse transform="matrix(0.5354 -0.8446 0.8446 0.5354 -188.0956 500.2343)" fill="#C7B29A" stroke="#020203" stroke-width="1.0487" stroke-miterlimit="10" cx="360.64" cy="421.09" rx="7.92" ry="5.45"/>
		
			<ellipse transform="matrix(0.8446 -0.5354 0.5354 0.8446 -188.4879 194.1276)" fill="#C7B29A" stroke="#020203" stroke-width="1.0487" stroke-miterlimit="10" cx="240.17" cy="421.77" rx="5.45" ry="7.92"/>
		<path fill="#020203" stroke="#020203" stroke-width="1.0487" stroke-miterlimit="10" d="M351.91,276.17c0,0,7.42-1.03,10.74,13.5
			s10.3,65.2,9.79,72.22c-0.51,7.02-5.69,59.19-5.69,59.19l-12.12-0.15l2.34-57.52l-11.3-60.06"/>
		<path fill="#020203" stroke="#020203" stroke-width="1.0487" stroke-miterlimit="10" d="M248.74,276.17c0,0-7.42-1.03-10.74,13.5
			s-10.3,65.2-9.79,72.22c0.51,7.02,5.69,59.19,5.69,59.19l12.12-0.15l-2.34-57.52l11.3-60.06"/>
		<g>
			<path fill="#C7B29A" d="M298.98,260.36l-13.11,0.38c-2.29,0-4.39-1.36-5.41-3.51l-4.07-8.51c-2.54-5.33-4.5-10.94-5.82-16.74l0,0
				l-1.61-22.81c0,0,2.88-14.04,7.64-15.23c4.77-1.19,23,0,23,0l19.13-2.21c0,0,9.36,4.85,10.25,8s-0.07,15.83-0.07,15.83
				c-0.02,0.31-0.95,12.57-0.95,12.57l-0.35,3.87c-1.32,5.79-3.27,11.41-5.82,16.74l-4.06,8.51c-1.03,2.15-3.13,3.51-5.42,3.51
				L298.98,260.36z"/>
			<path fill="#020203" d="M298.98,260.87c-4.41,0.1-8.84,0.11-13.25,0.13c-0.52-0.01-1.03-0.09-1.52-0.24
				c-1.98-0.55-3.52-2.2-4.27-4.05c0,0-1.28-2.65-1.28-2.65c-3.4-6.81-6.58-13.82-8.42-21.25c-0.05-0.2-0.13-0.5-0.18-0.7
				c-0.1-0.07-1.56-22.83-1.63-22.91c0.69-3.4,1.7-6.72,3.08-9.92c1.1-2.26,2.41-5.19,5.14-5.88c0.88-0.19,1.73-0.27,2.59-0.34
				c6.66-0.4,13.99,0,20.28,0.37c0,0,19.13-2.21,19.13-2.21s0.16-0.02,0.16-0.02l0.14,0.07c3.38,1.89,6.74,3.74,9.45,6.6
				c0.7,0.73,1.18,1.79,1.23,2.81c0.32,2.87,0.17,5.74,0.08,8.61c-0.38,7.62-1.04,15.19-1.72,22.79
				c-1.68,7.76-4.91,15.08-8.44,22.13c-0.83,1.55-1.62,4-3.02,5.2c-1.49,1.51-3.88,1.8-5.75,1.65
				C306.86,261.02,302.92,260.99,298.98,260.87L298.98,260.87z M298.98,259.85c3.94,0.11,7.89,0.31,11.83,0.49
				c1.1,0.03,2.49,0.19,3.53-0.29c1.49-0.75,2.66-1.88,3.29-3.49c0,0,1.27-2.67,1.27-2.67c3.49-7.06,6.64-14.27,8.29-22
				c0.32-3.47,0.62-7.6,0.89-11.29c0.42-5.67,0.88-11.33,0.79-17.01c-0.07-1.35-0.02-2.76-0.47-4.03c-1.12-1.96-3.18-3.23-5.05-4.53
				c-1.57-1.03-3.21-1.98-4.86-2.86l0.29,0.05c-0.05,0.01-19.13,2.21-19.17,2.22c-6.73-0.37-13.55-0.76-20.27-0.37
				c-1.59,0.15-3.2,0.15-4.32,1.47c-3.15,3.57-4.5,9.59-5.55,13.59c0,0,1.61,22.81,1.61,22.81c1.51,7.69,4.55,14.9,8.03,21.9
				c0.77,1.45,1.59,3.93,2.81,5.05c0.68,0.66,1.53,1.13,2.43,1.38c0.93,0.28,1.89,0.18,2.85,0.13
				C291.13,260.2,295.05,259.98,298.98,259.85L298.98,259.85z"/>
		</g>
		<path fill="#BCAE9F" stroke="#020203" stroke-miterlimit="10" d="M266.67,222.21c-0.07,3.15,1.32,5.74,3.11,5.78l0.05,0
			l-0.78-11.16C267.73,217.54,266.73,219.66,266.67,222.21z"/>
		<path fill="#BCAE9F" stroke="#020203" stroke-miterlimit="10" d="M331.51,222.28c0,3.15-1.45,5.71-3.24,5.71h-0.05l1.03-11.14
			C330.56,217.58,331.51,219.73,331.51,222.28z"/>
		<path fill="#1B1B1B" d="M299.5,240.44c4.31,0.52,2.24-2.27,2.24-2.27l-0.94-5.83h-3.13l-0.94,5.83c0,0-2.07,2.79,2.24,2.27H299.5z
			"/>
		
			<ellipse fill="#020203" stroke="#020203" stroke-width="0.2621" stroke-miterlimit="10" cx="300.22" cy="240" rx="0.91" ry="0.4"/>
		
			<ellipse fill="#020203" stroke="#020203" stroke-width="0.2621" stroke-miterlimit="10" cx="298.31" cy="240" rx="0.91" ry="0.4"/>
		<g>
			<path fill="#1B1B1B" d="M299.24,222.45c2.04,5.79,2.08,12.27,0,18.04C297.16,234.72,297.19,228.23,299.24,222.45L299.24,222.45z"
				/>
		</g>
		<g>
			<path fill="#020203" d="M309.73,250.24c-6.67,1.2-13.62,1.18-20.26,0c0,0.02,0-0.21,0-0.11c0.02-0.01,0.01,0.1,0.01,0.1
				c0,0-0.01,0-0.01,0c0,0.09,0-0.12,0-0.1c0.01,0,0.05,0,0.06,0c2.84-0.01,7.19-0.04,10.06-0.05c0,0,10.14,0.05,10.14,0.05
				S309.73,250.24,309.73,250.24L309.73,250.24z"/>
		</g>
		<g>
			<path fill="#020203" d="M289.46,250.14c3.39-0.91,6.74,0.17,10.14-0.23c3.32-0.37,6.69-0.39,9.98,0.2c0,0,0.08,0.02,0.08,0.02
				l0.04,0.01c0,0,0.02,0,0.02,0.01c0-0.02,0,0.2,0,0.11c0,0-0.01,0-0.01,0v-0.1c0,0,0.01,0,0.01,0c0-0.1,0,0.13,0,0.11
				c-0.04,0.01-0.1,0.02-0.14,0.03c-3.29,0.59-6.66,0.57-9.98,0.2c-3.4-0.39-6.75,0.68-10.14-0.23
				C289.46,250.24,289.46,250.14,289.46,250.14L289.46,250.14z"/>
		</g>
		<path fill="#020203" stroke="#020203" stroke-miterlimit="10" d="M268.96,209.17c0,0,3.09-12.77,8.45-14.55
			c5.36-1.79,22.43,0.13,22.43,0.13s13.31-2.55,18.29-2.17s10.5,9.19,10.5,9.19l0.28,13.79l0.13-0.49
			c1.9-7.28,2.34-14.87,1.28-22.33l-0.6-4.26c-0.15-1.03-0.74-1.94-1.63-2.49c-2.01-1.25-6.05-3.36-11.48-4.14
			c-7.91-1.15-37.15-2.31-36.89,0.77s1.53,3.7,1.53,3.7l-2.43-3.32C278.81,183,267.35,182.11,268.96,209.17z"/>
		
			<line fill="#020203" stroke="#020203" stroke-width="0.9653" stroke-miterlimit="10" x1="294.57" y1="219.52" x2="303.9" y2="219.52"/>
		<path fill="#020203" stroke="#020203" stroke-width="0.7807" stroke-miterlimit="10" d="M302.49,222.11
			c0.36,2.63,7.9,4.31,12.58,4.01c6.59-0.42,10-3.03,11.29-5.53c2.33-4.51-5.99-4.43-12.58-4.01
			C307.19,217.01,302.13,219.48,302.49,222.11z"/>
		<path fill="#020203" stroke="#020203" stroke-width="0.7807" stroke-miterlimit="10" d="M295.99,222.11
			c-0.36,2.63-7.9,4.31-12.58,4.01c-6.59-0.42-10-3.03-11.29-5.53c-2.33-4.51,5.99-4.43,12.58-4.01
			C291.29,217.01,296.34,219.48,295.99,222.11z"/>
	</g>
</g>
</svg>
