<?xml version="1.0" encoding="utf-8"?>
<!-- Generator: Adobe Illustrator 26.1.0, SVG Export Plug-In . SVG Version: 6.00 Build 0)  -->
<svg version="1.1" id="Capa_1" xmlns="http://www.w3.org/2000/svg" xmlns:xlink="http://www.w3.org/1999/xlink" x="0px" y="0px"
	 viewBox="0 0 149 387.2" style="enable-background:new 0 0 149 387.2;" xml:space="preserve">
<g id="Cuadrícula" style="display:none;">
	<g style="display:inline;opacity:0.48;">
		<rect style="fill:none;stroke:#9A9999;stroke-miterlimit:10;" width="600" height="800"/>
		<line style="fill:none;stroke:#9A9999;stroke-miterlimit:10;" x1="0" y1="387.1" x2="600" y2="387.1"/>
		<line style="fill:none;stroke:#9A9999;stroke-miterlimit:10;" x1="0" y1="361.3" x2="600" y2="361.3"/>
		<line style="fill:none;stroke:#9A9999;stroke-miterlimit:10;" x1="0" y1="335.5" x2="600" y2="335.5"/>
		<line style="fill:none;stroke:#9A9999;stroke-miterlimit:10;" x1="0" y1="309.7" x2="600" y2="309.7"/>
		<line style="fill:none;stroke:#9A9999;stroke-miterlimit:10;" x1="0" y1="283.9" x2="600" y2="283.9"/>
		<line style="fill:none;stroke:#9A9999;stroke-miterlimit:10;" x1="0" y1="258.1" x2="600" y2="258.1"/>
		<line style="fill:none;stroke:#9A9999;stroke-miterlimit:10;" x1="0" y1="232.3" x2="600" y2="232.3"/>
		<line style="fill:none;stroke:#9A9999;stroke-miterlimit:10;" x1="0" y1="206.4" x2="600" y2="206.4"/>
		<line style="fill:none;stroke:#9A9999;stroke-miterlimit:10;" x1="0" y1="180.6" x2="600" y2="180.6"/>
		<line style="fill:none;stroke:#9A9999;stroke-miterlimit:10;" x1="0" y1="154.8" x2="600" y2="154.8"/>
		<line style="fill:none;stroke:#9A9999;stroke-miterlimit:10;" x1="0" y1="129" x2="600" y2="129"/>
		<line style="fill:none;stroke:#9A9999;stroke-miterlimit:10;" x1="0" y1="103.2" x2="600" y2="103.2"/>
		<line style="fill:none;stroke:#9A9999;stroke-miterlimit:10;" x1="0" y1="77.4" x2="600" y2="77.4"/>
		<line style="fill:none;stroke:#9A9999;stroke-miterlimit:10;" x1="0" y1="51.6" x2="600" y2="51.6"/>
		<line style="fill:none;stroke:#9A9999;stroke-miterlimit:10;" x1="0" y1="25.8" x2="600" y2="25.8"/>
		<line style="fill:none;stroke:#9A9999;stroke-miterlimit:10;" x1="135.5" y1="0" x2="135.5" y2="800"/>
		<line style="fill:none;stroke:#9A9999;stroke-miterlimit:10;" x1="116.1" y1="0" x2="116.1" y2="800"/>
		<line style="fill:none;stroke:#9A9999;stroke-miterlimit:10;" x1="96.8" y1="0" x2="96.8" y2="800"/>
		<line style="fill:none;stroke:#9A9999;stroke-miterlimit:10;" x1="77.4" y1="0" x2="77.4" y2="800"/>
		<line style="fill:none;stroke:#9A9999;stroke-miterlimit:10;" x1="58.1" y1="0" x2="58.1" y2="800"/>
		<line style="fill:none;stroke:#9A9999;stroke-miterlimit:10;" x1="38.7" y1="0" x2="38.7" y2="800"/>
		<line style="fill:none;stroke:#9A9999;stroke-miterlimit:10;" x1="19.4" y1="0" x2="19.4" y2="800"/>
	</g>
</g>
<g id="Cabeza">
	<g>
		<path style="fill:#1B1B1B;stroke:#020203;stroke-width:1.4164;stroke-miterlimit:10;" d="M32.8,319.8c0,0,40,20.4,81.4,2.7
			L69.9,196.4L32.8,319.8z"/>
		
			<ellipse style="fill:#020203;stroke:#020203;stroke-width:1.2418;stroke-miterlimit:10;" cx="94.8" cy="376.4" rx="11.7" ry="10.8"/>
		<ellipse style="fill:#020203;stroke:#020203;stroke-width:1.1544;stroke-miterlimit:10;" cx="46.8" cy="375" rx="11.7" ry="9.3"/>
		<path style="fill:#020203;stroke:#020203;stroke-width:1.4164;stroke-miterlimit:10;" d="M61.9,386.2H21L20.5,374
			c-0.1-1.9,1.1-3.5,2.6-3.5l37.4,0.6c0.9,0,1.6,0.9,1.6,2V386C62.1,386.1,62,386.2,61.9,386.2z"/>
		<path style="fill:#020203;stroke:#020203;stroke-width:1.4164;stroke-miterlimit:10;" d="M118.9,387.2h-41c-0.1,0-0.1-0.1-0.1-0.2
			v-14.2c0-0.4,0.3-0.7,0.6-0.8l37.6-0.6c1.9,0,3.4,2,3.4,4.4L118.9,387.2z"/>
		<path style="fill:#020203;stroke:#020203;stroke-width:1.4164;stroke-miterlimit:10;" d="M63.7,286.2L63,310.3l0.7,71.9H44.8v-96
			l-1.9-73.5l32.7,1.2C75.6,213.9,64.7,238,63.7,286.2z"/>
		<path style="fill:#020203;stroke:#020203;stroke-width:1.4164;stroke-miterlimit:10;" d="M77.7,277.5l0.7,24.1l-0.7,71.9h18.9v-96
			l1.9-73.5l-32.7,1.2C65.9,205.2,76.8,229.3,77.7,277.5z"/>
		<path style="fill:#C7B29A;stroke:#020203;stroke-miterlimit:10;" d="M92.2,94.3c0,3.5-9,6.4-20.2,6.4S52,97.8,51.9,94.3
			c-0.1-0.4-0.1-0.8,0-1.3c1.6-6.2,0.3-19.5,0.3-19.5l38.1,0c0,0-0.2,13.7,1.8,20.2c0,0,0,0,0,0C92.2,93.9,92.2,94.1,92.2,94.3z"/>
		<path style="fill:none;stroke:#020203;stroke-miterlimit:10;" d="M92.2,94c0-0.1-0.1-0.2-0.1-0.2"/>
		<path style="fill:#1B1B1B;stroke:#020203;stroke-width:1.046;stroke-miterlimit:10;" d="M72.2,107.8H70c0,0-0.1,82.7,0,94.7
			c0,0-2,39.7-16.6,110.1l-20.5,7.2l7.5-109.2C36,157.1,20.6,97,20.6,97c11.1-3.3,29.9-5.1,29.9-5.1L72.2,107.8l23.2-15.9
			c0,0,18.7,1.8,29.8,5.1c0,0-15.4,60.1-19.7,113.7l8.8,111.9l-16-6.6C86.1,299.1,70,202.6,70,202.6v-94.7"/>
		<path style="fill:#020203;stroke:#020203;stroke-width:1.0333;stroke-miterlimit:10;" d="M73.8,88.1l16.9-6.3l6.1,12.2
			c0,0-9.6,11-24.2,14.1L73.8,88.1z"/>
		<path style="fill:#020203;stroke:#020203;stroke-width:1.0198;stroke-miterlimit:10;" d="M68.6,88.4l-16.3-4.7l-5,12.7
			c0,0,14.7,11.1,24.9,11.8l-1.6-17.3C70.6,89.7,69.8,88.8,68.6,88.4z"/>
		
			<ellipse transform="matrix(0.5354 -0.8446 0.8446 0.5354 -142.4496 224.8269)" style="fill:#C7B29A;stroke:#020203;stroke-width:1.0487;stroke-miterlimit:10;" cx="133.1" cy="241.9" rx="7.9" ry="5.5"/>
		
			<ellipse transform="matrix(0.8446 -0.5354 0.5354 0.8446 -127.9017 44.48)" style="fill:#C7B29A;stroke:#020203;stroke-width:1.0487;stroke-miterlimit:10;" cx="12.7" cy="242.6" rx="5.5" ry="7.9"/>
		<path style="fill:#020203;stroke:#020203;stroke-width:1.0487;stroke-miterlimit:10;" d="M124.4,97c0,0,7.4-1,10.7,13.5
			c3.3,14.5,10.3,65.2,9.8,72.2c-0.5,7-5.7,59.2-5.7,59.2l-12.1-0.1l2.3-57.5l-11.3-60.1"/>
		<path style="fill:#020203;stroke:#020203;stroke-width:1.0487;stroke-miterlimit:10;" d="M21.2,97c0,0-7.4-1-10.7,13.5
			s-10.3,65.2-9.8,72.2c0.5,7,5.7,59.2,5.7,59.2l12.1-0.1l-2.3-57.5l11.3-60.1"/>
		<g>
			<path style="fill:#C7B29A;" d="M71.5,81.2l-13.1,0.4c-2.3,0-4.4-1.4-5.4-3.5l-4.1-8.5c-2.5-5.3-4.5-10.9-5.8-16.7l0,0L41.5,30
				c0,0,2.9-14,7.6-15.2s23,0,23,0l19.1-2.2c0,0,9.4,4.8,10.2,8s-0.1,15.8-0.1,15.8c0,0.3-0.9,12.6-0.9,12.6l-0.3,3.9
				c-1.3,5.8-3.3,11.4-5.8,16.7l-4.1,8.5c-1,2.2-3.1,3.5-5.4,3.5L71.5,81.2z"/>
			<path style="fill:#020203;" d="M71.5,81.7c-4.4,0.1-8.8,0.1-13.2,0.1c-0.5,0-1-0.1-1.5-0.2c-2-0.6-3.5-2.2-4.3-4.1l-1.3-2.7
				c-3.4-6.8-6.6-13.8-8.4-21.2c0-0.2-0.1-0.5-0.2-0.7C42.5,52.8,41,30.1,40.9,30c0.7-3.4,1.7-6.7,3.1-9.9c1.1-2.3,2.4-5.2,5.1-5.9
				c0.9-0.2,1.7-0.3,2.6-0.3c6.7-0.4,14,0,20.3,0.4L91.2,12l0.2,0l0.1,0.1c3.4,1.9,6.7,3.7,9.4,6.6c0.7,0.7,1.2,1.8,1.2,2.8
				c0.3,2.9,0.2,5.7,0.1,8.6c-0.4,7.6-1,15.2-1.7,22.8C98.8,60.6,95.6,68,92.1,75c-0.8,1.6-1.6,4-3,5.2c-1.5,1.5-3.9,1.8-5.8,1.7
				C79.4,81.8,75.4,81.8,71.5,81.7L71.5,81.7z M71.5,80.7c3.9,0.1,7.9,0.3,11.8,0.5c1.1,0,2.5,0.2,3.5-0.3c1.5-0.8,2.7-1.9,3.3-3.5
				l1.3-2.7c3.5-7.1,6.6-14.3,8.3-22c0.3-3.5,0.6-7.6,0.9-11.3c0.4-5.7,0.9-11.3,0.8-17c-0.1-1.4,0-2.8-0.5-4
				c-1.1-2-3.2-3.2-5.1-4.5c-1.6-1-3.2-2-4.9-2.9l0.3,0.1c-0.1,0-19.1,2.2-19.2,2.2c-6.7-0.4-13.5-0.8-20.3-0.4
				c-1.6,0.1-3.2,0.1-4.3,1.5c-3.2,3.6-4.5,9.6-5.5,13.6l1.6,22.8c1.5,7.7,4.5,14.9,8,21.9c0.8,1.4,1.6,3.9,2.8,5.1
				c0.7,0.7,1.5,1.1,2.4,1.4c0.9,0.3,1.9,0.2,2.8,0.1C63.6,81,67.6,80.8,71.5,80.7L71.5,80.7z"/>
		</g>
		<path style="fill:#BCAE9F;stroke:#020203;stroke-miterlimit:10;" d="M39.2,43c-0.1,3.2,1.3,5.7,3.1,5.8h0l-0.8-11.2
			C40.2,38.3,39.2,40.5,39.2,43z"/>
		<path style="fill:#BCAE9F;stroke:#020203;stroke-miterlimit:10;" d="M104,43.1c0,3.2-1.4,5.7-3.2,5.7h-0.1l1-11.1
			C103.1,38.4,104,40.5,104,43.1z"/>
		<path style="fill:#1B1B1B;" d="M72,61.2c4.3,0.5,2.2-2.3,2.2-2.3l-0.9-5.8h-3.1L69.2,59c0,0-2.1,2.8,2.2,2.3H72z"/>
		<ellipse style="fill:#020203;stroke:#020203;stroke-width:0.2621;stroke-miterlimit:10;" cx="72.7" cy="60.8" rx="0.9" ry="0.4"/>
		<ellipse style="fill:#020203;stroke:#020203;stroke-width:0.2621;stroke-miterlimit:10;" cx="70.8" cy="60.8" rx="0.9" ry="0.4"/>
		<g>
			<path style="fill:#1B1B1B;" d="M71.7,43.2c2,5.8,2.1,12.3,0,18C69.7,55.5,69.7,49,71.7,43.2L71.7,43.2z"/>
		</g>
		<g>
			<path style="fill:#020203;" d="M82.2,71.1c-6.7,1.2-13.6,1.2-20.2,0c0,0,0,0,0,0c0,0,0-0.2,0-0.1h0V71h0c0,0.1,0-0.1,0-0.1
				c0,0,0,0,0.1,0c2.8,0,7.2,0,10.1-0.1l10.1,0.1L82.2,71.1L82.2,71.1z"/>
		</g>
		<g>
			<path style="fill:#020203;" d="M62,70.9c3.4-0.9,6.7,0.2,10.1-0.2c3.3-0.4,6.7-0.4,10,0.2l0.1,0l0,0c0,0,0,0,0,0c0,0,0,0.2,0,0.1
				h0V71h0c0-0.1,0,0.1,0,0.1c0,0-0.1,0-0.1,0c-3.3,0.6-6.7,0.6-10,0.2c-3.4-0.4-6.8,0.7-10.1-0.2C62,71.1,62,70.9,62,70.9L62,70.9z
				"/>
		</g>
		<path style="fill:#020203;stroke:#020203;stroke-miterlimit:10;" d="M41.5,30c0,0,3.1-12.8,8.5-14.6s22.4,0.1,22.4,0.1
			s13.3-2.5,18.3-2.2c5,0.4,10.5,9.2,10.5,9.2l0.3,13.8l0.1-0.5c1.9-7.3,2.3-14.9,1.3-22.3l-0.6-4.3c-0.2-1-0.7-1.9-1.6-2.5
			c-2-1.2-6.1-3.4-11.5-4.1C81.2,1.5,52,0.3,52.2,3.4s1.5,3.7,1.5,3.7l-2.4-3.3C51.3,3.8,39.8,2.9,41.5,30z"/>
		<line style="fill:none;stroke:#020203;stroke-width:0.9653;stroke-miterlimit:10;" x1="67.1" y1="40.3" x2="76.4" y2="40.3"/>
		<path style="fill:#020203;stroke:#020203;stroke-width:0.7807;stroke-miterlimit:10;" d="M75,42.9c0.4,2.6,7.9,4.3,12.6,4
			c6.6-0.4,10-3,11.3-5.5c2.3-4.5-6-4.4-12.6-4C79.7,37.8,74.6,40.3,75,42.9z"/>
		<path style="fill:#020203;stroke:#020203;stroke-width:0.7807;stroke-miterlimit:10;" d="M68.5,42.9c-0.4,2.6-7.9,4.3-12.6,4
			c-6.6-0.4-10-3-11.3-5.5c-2.3-4.5,6-4.4,12.6-4C63.8,37.8,68.8,40.3,68.5,42.9z"/>
	</g>
</g>
</svg>
